M48
;GenerationSoftware,Autodesk,EAGLE,9.6.2*%
;CreationDate,2020-12-17T21:47:18Z*%
FMAT,2
ICI,OFF
METRIC,TZ,000.000
T6C0.400
T5C0.600
T4C0.800
T3C0.813
T2C1.200
T1C2.000
%
G90
M71
T1
X23810Y50240
X16190Y50240
X16190Y19760
X23810Y19760
T2
X26985Y12795
X13015Y12795
X23810Y12795
X16190Y12795
T3
X97000Y54080
X86890Y80810
X97000Y51540
X97000Y49000
X3000Y54080
X49350Y81190
X46810Y81190
X3000Y51540
X3000Y49000
X79000Y72810
X79000Y65190
X80270Y83000
X79000Y81095
X77730Y83000
X77190Y31000
X84810Y31000
X97000Y44620
X97000Y42080
X97000Y39540
X97000Y37000
X53810Y39000
X46190Y39000
X3000Y44620
X3000Y42080
X3000Y39540
X3000Y37000
X72000Y16810
X72000Y9190
X75000Y9190
X75000Y16810
X78000Y9190
X78000Y16810
X20000Y31190
X20000Y38810
X46190Y43000
X53810Y43000
X90000Y16810
X90000Y9190
X53810Y47000
X46190Y47000
X87000Y16810
X87000Y9190
X84000Y16810
X84000Y9190
X81000Y16810
X81000Y9190
X65251Y84000
X58749Y84000
X97000Y5270
X97000Y2730
X81080Y97000
X78540Y97000
X76000Y97000
X73080Y97000
X70540Y97000
X68000Y97000
X44270Y81190
X32080Y97000
X29540Y97000
X27000Y97000
X41730Y81190
X39190Y81190
X36650Y81190
X24080Y97000
X21540Y97000
X19000Y97000
X89890Y38874
X87350Y38874
X84810Y38874
X82270Y38874
X79730Y38874
X77190Y38874
X74650Y38874
X89890Y23380
X87350Y23380
X84810Y23380
X82270Y23380
X79730Y23380
X77190Y23380
X74650Y23380
X72110Y38874
X72110Y23380
X68380Y3000
X70920Y3000
X73460Y3000
X76000Y3000
X97000Y16620
X97000Y14080
X97000Y11540
X97000Y9000
X97000Y96620
X97000Y94080
X97000Y91540
X97000Y89000
X87620Y3000
X85080Y3000
X82540Y3000
X80000Y3000
X3000Y96620
X3000Y94080
X3000Y91540
X3000Y89000
X97000Y65620
X97000Y63080
X97000Y60540
X97000Y58000
X3000Y65620
X3000Y63080
X3000Y60540
X3000Y58000
X86890Y93510
X3000Y6460
X3000Y9000
X3000Y20540
X3000Y18000
X34110Y81190
X41730Y88810
X97000Y33540
X97000Y31000
X3000Y33540
X3000Y31000
X97000Y19460
X97000Y22000
X97000Y24460
X97000Y27000
X8000Y15540
X8000Y13000
X8000Y20540
X8000Y18000
X3000Y25460
X3000Y28000
X51270Y18000
X48730Y18000
X72110Y50810
X74650Y50810
X77190Y50810
X79730Y50810
X82270Y50810
X84810Y50810
X87350Y50810
X89890Y50810
X82270Y43190
X84810Y43190
X79730Y43190
X77190Y43190
X89890Y43190
X87350Y43190
X74650Y43190
X72110Y43190
X65810Y74890
X65810Y72350
X65810Y69810
X65810Y67270
X65810Y64730
X65810Y62190
X65810Y59650
X65810Y57110
X58190Y64730
X58190Y62190
X58190Y67270
X39190Y88810
X44270Y88810
X58190Y69810
X58190Y57110
X58190Y59650
X58190Y72350
X38600Y93840
X38600Y96380
X41140Y93840
X41140Y96380
X43680Y93840
X43680Y96380
X46220Y93840
X46220Y96380
X48760Y93840
X48760Y96380
X51300Y93840
X51300Y96380
X53840Y93840
X53840Y96380
X56380Y93840
X56380Y96380
X58920Y93840
X58920Y96380
X61460Y93840
X61460Y96380
X6200Y70000
X3660Y70000
X6200Y72540
X3660Y72540
X6200Y75080
X3660Y75080
X6200Y77620
X3660Y77620
X6200Y80160
X3660Y80160
X6200Y82700
X3660Y82700
X6200Y85240
X3660Y85240
X96300Y70000
X93760Y70000
X96300Y72540
X93760Y72540
X96300Y75080
X93760Y75080
X96300Y77620
X93760Y77620
X96300Y80160
X93760Y80160
X96300Y82700
X93760Y82700
X96300Y85240
X93760Y85240
X28350Y85890
X28350Y83350
X28350Y80810
X28350Y78270
X28350Y75730
X28350Y73190
X28350Y70650
X28350Y68110
X13110Y57950
X13110Y60490
X13110Y63030
X13110Y65570
X13110Y68110
X13110Y70650
X13110Y73190
X13110Y75730
X13110Y78270
X13110Y80810
X13110Y83350
X13110Y85890
X13110Y88430
X13110Y90970
X13110Y93510
X13110Y96050
X71650Y68110
X71650Y70650
X71650Y73190
X71650Y75730
X71650Y78270
X71650Y80810
X71650Y83350
X71650Y85890
X86890Y96050
X58190Y74890
X86890Y90970
X86890Y88430
X86890Y85890
X86890Y83350
X51890Y81190
X86890Y78270
X86890Y75730
X86890Y73190
X86890Y70650
X86890Y68110
X86890Y65570
X86890Y63030
X86890Y60490
X86890Y57950
X36030Y46780
X36030Y44240
X36030Y41700
X36030Y39160
X36030Y36620
X36030Y34080
X36030Y31540
X36030Y29000
X36030Y26460
X36030Y23920
X36030Y21380
X36030Y18840
X36030Y16300
X36030Y13760
X36030Y11220
X63970Y11220
X63970Y13760
X63970Y16300
X63970Y18840
X63970Y21380
X63970Y23920
X63970Y26460
X63970Y29000
X63970Y31540
X63970Y34080
X63970Y36620
X63970Y39160
X63970Y41700
X63970Y44240
X63970Y46780
X34190Y74890
X34190Y72350
X34190Y59650
X34190Y57110
X34190Y69810
X34190Y67270
X34190Y62190
X34190Y64730
X41810Y57110
X41810Y59650
X41810Y62190
X41810Y64730
X41810Y67270
X41810Y69810
X41810Y72350
X41810Y74890
X46190Y74890
X46190Y72350
X46190Y59650
X46190Y57110
X46190Y69810
X46190Y67270
X46190Y62190
X46190Y64730
X53810Y57110
X53810Y59650
X53810Y62190
X53810Y64730
X53810Y67270
X53810Y69810
X53810Y72350
X53810Y74890
X51890Y88810
X49350Y88810
X36650Y88810
X34110Y88810
X46810Y88810
T4
X3250Y11500
X10000Y19250
X27000Y27000
X20000Y27000
X6000Y23250
X6000Y9250
X65750Y6500
X75500Y20000
T5
X73400Y25000
X66250Y12500
T6
X68250Y29750
X68250Y34000
X78000Y85750
X62300Y84000
X4500Y40750
X41750Y39000
X32000Y62500
X23750Y67000
X30500Y67000
X26250Y67750
X32750Y66000
X21000Y71750
X32000Y69500
X22000Y74250
X32500Y71250
X25500Y72000
X89500Y64500
X68250Y66000
X95000Y73500
X82500Y71250
X74750Y63500
X61000Y64500
X95000Y76000
X82500Y73750
X73750Y65000
X62250Y70250
X95000Y78250
X89750Y81000
X82250Y85750
X61250Y82000
X57000Y77750
X56000Y70000
X95000Y80750
X66500Y82500
X63500Y78500
X63500Y75000
X84750Y78500
X64750Y82000
X62250Y78500
X62250Y75000
X63750Y72250
X32250Y83000
X44750Y77000
X51000Y66000
X52000Y68250
X43250Y55750
X85250Y84750
X68750Y86500
X78000Y89500
X5000Y64250
X5000Y53750
X75750Y91250
X69250Y91250
X55250Y95000
X84750Y88500
X65250Y96250
X79750Y92250
X43750Y79250
X43750Y68500
X92500Y44500
X66500Y96250
X45000Y95250
X29250Y89000
X42500Y95250
X28000Y89000
X36250Y93000
X26250Y88500
X35750Y94000
X27250Y91000
X86000Y48500
X69250Y48500
X7000Y43500
X32000Y60250
X31250Y61750
X5000Y89500
X2000Y86750
X78250Y4750
X49250Y57000
X71000Y41500
X79750Y21250
X71500Y33000
X71500Y30000
X72250Y45500
X79750Y18250
X32250Y95000
X24500Y93750
X84500Y93250
X74500Y97000
X25500Y96750
X17500Y96000
X95000Y23750
X88250Y20500
X95500Y64250
X68250Y70000
X88250Y54250
X83500Y59000
X32750Y87750
X8500Y66000
X65750Y25000
X65750Y40250
X72500Y32000
X66000Y23500
X65750Y42750
X64000Y9750
X73500Y8750
X73500Y6250
X95750Y25750
X81500Y21500
X69250Y27250
X71750Y55000
X87000Y20000
X88000Y47750
X93500Y37250
X12750Y56500
X12750Y44500
X68750Y45500
X63000Y94000
X37750Y69750
X37750Y62250
X62750Y61500
X52500Y63500
X79900Y53300
X66750Y52750
X66750Y26500
X41500Y77000
X48500Y66000
X40500Y66000
X40500Y63500
X39250Y76250
X79750Y56000
X63750Y60000
X52000Y55500
X52000Y60500
X52000Y35750
X16250Y59000
X20000Y52250
X72000Y60250
X50500Y57750
X44750Y63500
X30500Y74000
X55000Y82500
X31000Y85500
X53000Y76500
X49750Y71000
X60000Y71250
X69000Y73000
X48000Y71500
X30750Y79750
X67250Y80000
X38250Y73750
X33250Y78750
X69500Y79000
X30500Y83500
X53250Y80250
X36000Y58750
X73250Y69500
X30500Y86500
X42500Y78750
X37000Y78750
X86250Y53750
X70750Y51250
X63750Y57500
X56500Y56000
X94500Y46500
M30